<?xml version="1.0" encoding="UTF-8"?>
<svg xmlns="http://www.w3.org/2000/svg" viewBox="0 0 720 405" role="img" aria-label="Column chart of average annual U.S. real GDP growth by decade, 1900s through 2020s. Every decade sits between 1 and 4.5 percent except the 1940s at 5.6 percent. A dashed line marks Collison's 5 percent scenario, and a shaded band at 7.2 to 11.6 percent marks the VC-room claim if 2 to 3x referred to the GDP level." style="width:100%;height:auto;display:block;font-family:'Hanken Grotesk', Inter, -apple-system, 'Helvetica Neue', Arial, sans-serif;font-variant-numeric:tabular-nums">
<title>A century of U.S. real GDP growth vs. the room</title>
<line x1="70" y1="288.3" x2="690" y2="288.3" stroke="#e8eaee"/>
<line x1="70" y1="236.7" x2="690" y2="236.7" stroke="#e8eaee"/>
<line x1="70" y1="185.0" x2="690" y2="185.0" stroke="#e8eaee"/>
<line x1="70" y1="133.3" x2="690" y2="133.3" stroke="#e8eaee"/>
<line x1="70" y1="81.7" x2="690" y2="81.7" stroke="#e8eaee"/>
<line x1="70" y1="30.0" x2="690" y2="30.0" stroke="#e8eaee"/>
<text x="62" y="344.5" text-anchor="end" style="font-size:12px;fill:#79839a">0%</text>
<text x="62" y="292.8333333333333" text-anchor="end" style="font-size:12px;fill:#79839a">2%</text>
<text x="62" y="241.16666666666669" text-anchor="end" style="font-size:12px;fill:#79839a">4%</text>
<text x="62" y="189.5" text-anchor="end" style="font-size:12px;fill:#79839a">6%</text>
<text x="62" y="137.83333333333334" text-anchor="end" style="font-size:12px;fill:#79839a">8%</text>
<text x="62" y="86.16666666666663" text-anchor="end" style="font-size:12px;fill:#79839a">10%</text>
<text x="62" y="34.5" text-anchor="end" style="font-size:12px;fill:#79839a">12%</text>
<rect x="70" y="40.3" width="620" height="113.7" fill="#f1ecfd"/>
<line x1="70" y1="40.3" x2="690" y2="40.3" stroke="#8b5cf6" opacity="0.35" stroke-dasharray="4 5"/>
<line x1="70" y1="154.0" x2="690" y2="154.0" stroke="#8b5cf6" opacity="0.35" stroke-dasharray="4 5"/>
<text x="380" y="101.16666666666666" text-anchor="middle" style="font-size:13px;fill:#6d3fd4;font-weight:600">VC-room claim (2&#8211;3x level): 7.2&#8211;11.6% a year</text>
<line x1="70" y1="210.8" x2="690" y2="210.8" stroke="#f5a623" stroke-width="1.5" stroke-dasharray="6 5"/>
<text x="688" y="203.83333333333331" text-anchor="end" style="font-size:13px;fill:#b9760a;font-weight:600">Collison: 5% a year</text>
<rect x="78.8" y="241.8" width="30" height="98.2" rx="3" fill="#8a93a5" opacity="0.5"/>
<text x="93.8" y="234.83333333333334" text-anchor="middle" style="font-size:12px;fill:#5c6878">3.8</text>
<text x="93.8" y="360" text-anchor="middle" style="font-size:12.5px;fill:#79839a">1900s</text>
<rect x="126.5" y="288.3" width="30" height="51.7" rx="3" fill="#8a93a5" opacity="0.5"/>
<text x="141.5" y="281.3333333333333" text-anchor="middle" style="font-size:12px;fill:#5c6878">2.0</text>
<rect x="174.2" y="252.2" width="30" height="87.8" rx="3" fill="#8a93a5" opacity="0.5"/>
<text x="189.2" y="245.16666666666669" text-anchor="middle" style="font-size:12px;fill:#5c6878">3.4</text>
<text x="189.2" y="360" text-anchor="middle" style="font-size:12.5px;fill:#79839a">1920s</text>
<rect x="221.9" y="314.2" width="30" height="25.8" rx="3" fill="#8a93a5" opacity="1"/>
<text x="236.9" y="307.1666666666667" text-anchor="middle" style="font-size:12px;fill:#5c6878">1.0</text>
<rect x="269.6" y="195.3" width="30" height="144.7" rx="3" fill="#1c2a44" opacity="1"/>
<text x="284.6" y="188.33333333333334" text-anchor="middle" style="font-size:12px;fill:#1c2a44;font-weight:600">5.6</text>
<text x="284.6" y="360" text-anchor="middle" style="font-size:12.5px;fill:#79839a">1940s</text>
<rect x="317.3" y="231.5" width="30" height="108.5" rx="3" fill="#8a93a5" opacity="1"/>
<text x="332.3" y="224.5" text-anchor="middle" style="font-size:12px;fill:#5c6878">4.2</text>
<rect x="365.0" y="223.8" width="30" height="116.2" rx="3" fill="#8a93a5" opacity="1"/>
<text x="380.0" y="216.75" text-anchor="middle" style="font-size:12px;fill:#5c6878">4.5</text>
<text x="380.0" y="360" text-anchor="middle" style="font-size:12.5px;fill:#79839a">1960s</text>
<rect x="412.7" y="257.3" width="30" height="82.7" rx="3" fill="#8a93a5" opacity="1"/>
<text x="427.7" y="250.33333333333331" text-anchor="middle" style="font-size:12px;fill:#5c6878">3.2</text>
<rect x="460.4" y="259.9" width="30" height="80.1" rx="3" fill="#8a93a5" opacity="1"/>
<text x="475.4" y="252.91666666666663" text-anchor="middle" style="font-size:12px;fill:#5c6878">3.1</text>
<text x="475.4" y="360" text-anchor="middle" style="font-size:12.5px;fill:#79839a">1980s</text>
<rect x="508.1" y="257.3" width="30" height="82.7" rx="3" fill="#8a93a5" opacity="1"/>
<text x="523.1" y="250.33333333333331" text-anchor="middle" style="font-size:12px;fill:#5c6878">3.2</text>
<rect x="555.8" y="290.9" width="30" height="49.1" rx="3" fill="#8a93a5" opacity="1"/>
<text x="570.8" y="283.9166666666667" text-anchor="middle" style="font-size:12px;fill:#5c6878">1.9</text>
<text x="570.8" y="360" text-anchor="middle" style="font-size:12.5px;fill:#79839a">2000s</text>
<rect x="603.5" y="278.0" width="30" height="62.0" rx="3" fill="#8a93a5" opacity="1"/>
<text x="618.5" y="271.0" text-anchor="middle" style="font-size:12px;fill:#5c6878">2.4</text>
<rect x="651.2" y="278.0" width="30" height="62.0" rx="3" fill="#8a93a5" opacity="1"/>
<text x="666.2" y="271.0" text-anchor="middle" style="font-size:12px;fill:#5c6878">2.4</text>
<text x="666.2" y="360" text-anchor="middle" style="font-size:12.5px;fill:#79839a">2020s</text>
<line x1="70" y1="340" x2="690" y2="340" stroke="#e8eaee"/>
<text x="380" y="392" text-anchor="middle" style="font-size:13px;fill:#79839a">Average annual U.S. real GDP growth by decade</text>
</svg>