<svg width="240" height="240" viewBox="130 130 240 240" fill="none" xmlns="http://www.w3.org/2000/svg">
<ellipse cx="239.804" cy="194.719" rx="14.4224" ry="14.422" stroke="#00814B" stroke-width="12.909"/>
<ellipse cx="241.195" cy="307.01" rx="14.4224" ry="14.422" stroke="#00814B" stroke-width="12.909"/>
<path fill-rule="evenodd" clip-rule="evenodd" d="M252.429 196.34L333.913 276.621L333.93 276.637C364.115 305.964 343.355 357.137 301.261 357.137H142.862V209.974L144.63 214.216C147.749 221.7 151.475 228.916 155.771 235.792V235.792V344.228H301.261C331.769 344.228 346.813 307.133 324.922 285.883L324.888 285.85L243.37 205.536L252.429 196.34Z" fill="#00814B"/>
<path fill-rule="evenodd" clip-rule="evenodd" d="M306.963 232.021L317.496 223.142L317.641 223.004C347.98 194.03 327.472 142.862 285.52 142.862H216.346V155.771H285.52C315.763 155.771 330.58 192.58 308.864 213.535L297.484 223.128L306.963 232.021Z" fill="#00814B"/>
<path d="M252.59 149.31H149.318L150.007 156.405C153.895 196.462 171.46 233.957 199.749 262.582L234.518 297.766" stroke="#00814B" stroke-width="12.909"/>
<path d="M206.116 269.37L210.461 268.377C237.46 262.206 263.109 251.169 286.152 235.807V235.807" stroke="#00814B" stroke-width="12.909"/>
</svg>