<svg xmlns="http://www.w3.org/2000/svg" width="100%" viewBox="0 0 83 19" fill="none" class="navbar_logo"><path d="M8.72114 1.61499C9.46455 0.871584 9.83625 0.5 10.2981 0.5C10.76 0.5 11.1317 0.871584 11.8751 1.61499L12.9265 2.66632C13.6699 3.40973 14.0415 3.78143 14.0415 4.24333C14.0415 4.70522 13.6699 5.07692 12.9265 5.82033L12.3105 6.43635C11.4979 7.24888 11.0415 8.35091 11.0415 9.5C11.0415 10.6491 11.4979 11.7511 12.3105 12.5637L12.9265 13.1797C13.6699 13.9231 14.0415 14.2948 14.0415 14.7567C14.0415 15.2186 13.6699 15.5903 12.9265 16.3337L11.8751 17.385C11.1317 18.1284 10.76 18.5 10.2981 18.5C9.83625 18.5 9.46455 18.1284 8.72114 17.385L7.66981 16.3337C6.9264 15.5903 6.55482 15.2186 6.55482 14.7567C6.55482 14.2948 6.9264 13.9231 7.66981 13.1797L8.28582 12.5637C9.09835 11.7511 9.55482 10.6491 9.55482 9.5C9.55482 8.35091 9.09835 7.24888 8.28582 6.43635L7.66981 5.82033C6.9264 5.07692 6.55482 4.70522 6.55482 4.24333C6.55482 3.78143 6.9264 3.40973 7.66981 2.66632L8.72114 1.61499Z" fill="currentColor"></path><path d="M2.41314 6.87166C3.15654 6.12826 3.52824 5.75667 3.99014 5.75667C4.45203 5.75667 4.82373 6.12826 5.56714 6.87166L6.61847 7.923C7.36188 8.6664 7.73346 9.03811 7.73346 9.5C7.73346 9.96189 7.36188 10.3336 6.61847 11.077L5.56714 12.1283C4.82373 12.8717 4.45203 13.2433 3.99014 13.2433C3.52824 13.2433 3.15654 12.8717 2.41314 12.1283L1.3618 11.077C0.618395 10.3336 0.246811 9.96189 0.246811 9.5C0.246811 9.03811 0.618395 8.6664 1.3618 7.923L2.41314 6.87166Z" fill="currentColor"></path><path fill-rule="evenodd" clip-rule="evenodd" d="M45.1849 6.20869C46.0214 6.20869 46.7486 6.37985 47.3657 6.72269C47.9827 7.05179 48.456 7.51105 48.785 8.1006C49.1141 8.69026 49.2787 9.36245 49.2787 10.1167V14.4363C49.2787 15.3962 49.3125 16.1506 49.3811 16.6991H47.736C47.7223 16.5347 47.7017 16.3633 47.6743 16.1851C47.6543 15.8456 47.6448 15.4621 47.6467 15.0352C47.5062 15.367 47.2762 15.6752 46.9541 15.9586C46.6113 16.2466 46.1998 16.4795 45.7199 16.6578C45.2537 16.8223 44.76 16.9046 44.2389 16.9046C43.6081 16.9046 43.0388 16.7746 42.5314 16.514C42.024 16.2535 41.6193 15.8898 41.3176 15.4236C41.0297 14.9574 40.8856 14.4364 40.8856 13.8605C40.8856 13.2298 41.0437 12.6883 41.359 12.2358C41.6744 11.7833 42.1063 11.4329 42.6548 11.186C43.2033 10.9255 43.8411 10.7683 44.5678 10.7134L47.5298 10.4702V10.1167C47.5298 9.60929 47.4409 9.17731 47.2626 8.82078C47.0844 8.45052 46.817 8.16917 46.4604 7.97719C46.1176 7.78521 45.7128 7.6897 45.2466 7.6897H45.1029C44.4858 7.6897 43.9642 7.84029 43.5391 8.14198C43.1278 8.42996 42.8948 8.8348 42.84 9.35583H41.0918C41.1466 8.42339 41.5508 7.66888 42.3049 7.09294C43.0728 6.50328 44.033 6.20871 45.1849 6.20869ZM44.835 12.0499C44.1632 12.1048 43.6282 12.2907 43.2305 12.606C42.8331 12.9077 42.6345 13.2987 42.6345 13.7785C42.6346 14.2446 42.8058 14.6356 43.1485 14.951C43.4913 15.2663 43.9167 15.4236 44.4241 15.4236H44.6092C45.0753 15.4236 45.5346 15.3141 45.9871 15.0947C46.4396 14.8616 46.8099 14.5597 47.0979 14.1894C47.3858 13.8055 47.5298 13.408 47.5298 12.9966V11.8467L44.835 12.0499Z" fill="currentColor"></path><path fill-rule="evenodd" clip-rule="evenodd" d="M66.1164 6.20869C66.9529 6.20869 67.6802 6.37985 68.2973 6.72269C68.9142 7.05178 69.3875 7.51104 69.7166 8.1006C70.0457 8.69026 70.2102 9.36245 70.2102 10.1167V14.4363C70.2102 15.3962 70.244 16.1506 70.3126 16.6991H68.6675C68.6538 16.5347 68.6332 16.3633 68.6058 16.1851C68.5858 15.8452 68.5771 15.4612 68.5789 15.0337C68.4385 15.3661 68.2082 15.6748 67.8856 15.9586C67.5428 16.2466 67.1314 16.4795 66.6515 16.6578C66.1852 16.8223 65.6915 16.9046 65.1705 16.9046C64.5396 16.9046 63.9703 16.7746 63.4629 16.514C62.9556 16.2535 62.5508 15.8898 62.2491 15.4236C61.9613 14.9574 61.8172 14.4364 61.8171 13.8605C61.8171 13.2299 61.9752 12.6883 62.2905 12.2358C62.6059 11.7833 63.0378 11.4329 63.5864 11.186C64.1348 10.9255 64.7726 10.7683 65.4993 10.7134L68.4613 10.4702V10.1167C68.4613 9.60929 68.3724 9.17731 68.1942 8.82078C68.0159 8.45054 67.7485 8.16917 67.392 7.97719C67.0491 7.78524 66.6443 7.6897 66.1781 7.6897H66.0344C65.4174 7.6897 64.8964 7.84039 64.4713 8.14198C64.0599 8.42997 63.8263 8.83472 63.7715 9.35583H62.0233C62.0782 8.42332 62.4829 7.6689 63.2372 7.09294C64.005 6.50341 64.9647 6.20873 66.1164 6.20869ZM65.7672 12.0499C65.0953 12.1048 64.5605 12.2907 64.1628 12.606C63.7651 12.9077 63.566 13.2985 63.566 13.7785C63.5661 14.2446 63.7373 14.6356 64.08 14.951C64.4229 15.2663 64.8482 15.4236 65.3556 15.4236H65.5407C66.0069 15.4236 66.4662 15.3141 66.9186 15.0947C67.3712 14.8616 67.7414 14.5597 68.0294 14.1894C68.3173 13.8055 68.4613 13.408 68.4613 12.9966V11.8467L65.7672 12.0499Z" fill="currentColor"></path><path fill-rule="evenodd" clip-rule="evenodd" d="M27.2067 2.30001C28.0842 2.30001 28.866 2.47126 29.5516 2.814C30.251 3.14312 30.7997 3.63749 31.1974 4.29573C31.6087 4.95387 31.8144 5.72843 31.8145 6.6196C31.8145 7.52459 31.6087 8.30632 31.1974 8.96452C30.7997 9.60905 30.251 10.1027 29.5516 10.4455C28.8659 10.7746 28.0843 10.9392 27.2067 10.9392H23.0925V16.6991H21.2413V2.30001H27.2067ZM23.0925 9.25274H26.8981C27.8718 9.25274 28.6262 9.0331 29.161 8.59427C29.6957 8.14174 29.9632 7.48345 29.9632 6.6196C29.9632 5.75587 29.6957 5.10477 29.161 4.66598C28.6262 4.21344 27.8718 3.98719 26.8981 3.98719H23.0925V9.25274Z" fill="currentColor"></path><path d="M39.7262 7.97719H38.9037C38.2729 7.97719 37.7241 8.12123 37.2579 8.40915C36.8054 8.69708 36.4557 9.10863 36.2088 9.64332C35.9758 10.1781 35.859 10.8159 35.8589 11.5563V16.6991H34.1108V6.41415H35.7566V8.66106C35.8541 8.29899 35.9981 7.9753 36.1885 7.6897C36.5039 7.23721 36.8874 6.89411 37.3399 6.66098C37.7925 6.42785 38.2795 6.31106 38.8006 6.31106H39.7262V7.97719Z" fill="currentColor"></path><path d="M55.851 15.0199L58.9582 6.41415H60.7478L56.9015 16.6991H54.762L50.9151 6.41415H52.7257L55.851 15.0199Z" fill="currentColor"></path><path d="M75.0307 7.96049C75.3267 7.49145 75.7095 7.1055 76.1822 6.80473C76.7855 6.40705 77.54 6.20871 78.445 6.20869C79.2129 6.20869 79.8712 6.35933 80.4197 6.66098C80.9682 6.96268 81.3796 7.388 81.6539 7.93653C81.9418 8.48504 82.0858 9.12273 82.0858 9.84949V16.6991H80.3377V10.2604C80.3376 9.7121 80.2553 9.24602 80.0908 8.86216C79.94 8.47819 79.6998 8.19023 79.3707 7.99824C79.0415 7.79254 78.6302 7.6897 78.1365 7.6897H77.9514C77.4441 7.68971 76.9642 7.82645 76.5117 8.1006C76.0729 8.36116 75.7159 8.74534 75.4417 9.25274C75.1675 9.74632 75.0308 10.3291 75.0307 11.0009V16.6991H73.2819V2.30001H75.0307V7.96049Z" fill="currentColor"></path><path d="M69.0581 4.56289H63.2575V3.16392H69.0581V4.56289Z" fill="currentColor"></path></svg>
